<?xml version="1.0" standalone="no"?>
<!DOCTYPE svg PUBLIC "-//W3C//DTD SVG 20010904//EN"
 "http://www.w3.org/TR/2001/REC-SVG-20010904/DTD/svg10.dtd">
<svg version="1.0" xmlns="http://www.w3.org/2000/svg"
 width="500.000000pt" height="375.000000pt" viewBox="0 0 500.000000 375.000000"
 preserveAspectRatio="xMidYMid meet">
<metadata>
Created by potrace 1.15, written by Peter Selinger 2001-2017
</metadata>
<g transform="translate(0.000000,375.000000) scale(0.100000,-0.100000)"
fill="#000000" stroke="none">
<path d="M2289 3556 c-2 -2 -49 -7 -104 -11 -55 -4 -136 -13 -180 -21 -44 -8
-98 -18 -120 -21 -22 -3 -44 -9 -50 -13 -5 -4 -30 -11 -55 -16 -49 -8 -56 -10
-67 -14 -5 -2 -12 -4 -18 -5 -5 -1 -27 -9 -48 -18 -21 -9 -45 -13 -54 -10 -11
4 -14 3 -9 -5 7 -12 -10 -17 -47 -14 -10 1 -16 -2 -13 -7 8 -12 -72 -43 -86
-35 -6 4 -8 3 -5 -3 8 -12 -98 -64 -117 -57 -8 3 -17 1 -21 -5 -3 -7 0 -8 9
-5 31 12 15 -4 -40 -40 -31 -21 -54 -40 -51 -42 2 -3 53 9 112 26 59 17 109
29 111 27 3 -2 -17 -10 -43 -17 -64 -16 -204 -81 -198 -91 3 -4 -1 -10 -7 -13
-11 -5 -11 -7 0 -12 6 -3 10 -10 6 -15 -3 -5 -12 -2 -21 7 -10 10 -12 18 -6
22 5 4 15 17 22 29 19 36 -8 18 -52 -34 -24 -29 -36 -52 -32 -62 3 -8 3 -12
-1 -8 -4 4 -14 -2 -22 -14 -17 -24 -9 -37 13 -19 9 7 18 10 21 7 3 -3 -8 -12
-24 -21 -35 -18 -42 -33 -42 -93 0 -45 0 -46 20 -28 21 19 29 8 8 -13 -8 -8
-8 -15 1 -26 8 -9 10 -27 7 -43 -14 -63 132 -199 313 -292 158 -81 538 -196
565 -170 5 5 14 2 20 -6 7 -9 58 -19 156 -30 186 -22 216 -33 70 -28 -251 9
-628 101 -832 204 -92 46 -193 113 -248 165 -54 50 -110 131 -110 157 0 10 -4
17 -8 17 -10 0 3 -129 19 -185 26 -95 115 -203 232 -283 115 -79 380 -190 532
-222 33 -7 64 -17 69 -21 9 -8 20 -219 56 -1014 11 -253 25 -552 30 -664 6
-112 8 -206 5 -209 -3 -3 -5 7 -5 21 0 15 -4 27 -10 27 -5 0 -6 -7 -3 -17 4
-11 3 -14 -5 -9 -13 8 -14 5 -17 -39 -1 -16 3 -35 9 -41 6 -7 22 -25 35 -42
18 -22 31 -29 52 -28 24 2 26 0 16 -13 -10 -12 -9 -13 8 -6 11 4 31 9 45 9 14
1 44 11 68 24 47 24 67 28 56 10 -4 -7 -3 -8 5 -4 6 4 9 12 6 17 -4 5 3 9 14
9 11 0 23 5 27 11 4 7 0 9 -14 5 -12 -4 -23 -2 -28 5 -4 8 -3 9 4 5 6 -4 21
-2 32 4 16 9 25 8 38 -1 9 -8 14 -9 10 -5 -4 5 0 15 10 22 16 13 16 13 0 14
-17 0 -17 1 0 18 19 21 34 19 26 -2 -3 -8 0 -17 7 -22 7 -4 10 -3 5 4 -3 6 -1
14 5 17 5 4 8 14 5 22 -4 9 -2 11 6 7 8 -5 9 -2 5 9 -4 11 -1 17 7 17 8 0 13
-7 12 -16 0 -9 10 -23 24 -32 16 -12 22 -13 16 -3 -5 8 -3 17 5 23 11 7 9 9
-7 5 -16 -3 -21 0 -19 12 2 9 4 18 4 21 1 3 6 -2 11 -10 8 -13 10 -13 10 2 0
11 6 15 20 11 15 -4 18 -9 10 -18 -8 -9 -6 -14 6 -19 23 -9 34 -7 34 4 0 5 -8
6 -17 3 -12 -5 -15 -2 -10 9 3 9 -3 26 -14 39 -25 29 -24 29 11 16 17 -6 30
-17 30 -24 0 -7 7 -13 15 -13 8 0 15 9 15 20 0 11 -3 20 -7 20 -5 0 -8 12 -9
28 l-1 27 10 -27 c6 -16 15 -28 20 -28 14 0 37 -27 37 -44 0 -9 5 -16 10 -16
6 0 10 8 8 17 -2 10 2 18 9 18 6 0 15 4 20 9 5 5 3 6 -4 2 -7 -4 -13 -3 -13 3
0 11 65 9 76 -2 4 -4 2 -7 -5 -7 -7 0 -10 -4 -7 -9 3 -4 -5 -8 -17 -7 -22 2
-37 -10 -37 -29 0 -5 4 -4 9 4 11 17 34 4 27 -16 -4 -8 -1 -11 5 -8 6 4 8 13
5 21 -7 18 8 18 24 0 9 -11 18 -13 37 -5 14 5 28 7 31 4 3 -3 1 -5 -4 -5 -5 0
-10 -9 -10 -20 0 -10 2 -17 5 -15 2 3 11 -1 20 -7 13 -10 14 -10 4 2 -18 20
-16 27 8 33 16 4 18 3 9 -8 -9 -10 -7 -16 7 -23 10 -5 24 -7 31 -5 9 4 11 -4
7 -26 -4 -25 -2 -29 10 -25 9 4 23 -3 34 -15 22 -25 31 -27 31 -5 0 12 5 11
20 -7 17 -21 21 -22 30 -9 8 13 10 12 11 -5 0 -11 3 -14 6 -7 2 6 9 12 14 12
6 0 8 -4 4 -9 -6 -10 34 -37 49 -33 4 2 14 -2 21 -8 9 -8 15 -8 20 0 3 6 11 8
16 5 14 -9 98 64 105 91 4 14 11 21 18 17 7 -4 6 -1 -2 9 -7 8 -10 23 -6 32 3
9 1 16 -6 16 -6 0 -8 -6 -5 -12 4 -7 0 -5 -8 5 -15 18 -15 18 -21 0 -3 -10 -4
29 -2 87 6 156 96 1742 101 1766 4 16 15 23 43 28 106 16 323 91 444 152 165
83 292 193 341 294 28 57 51 179 44 227 l-4 28 -7 -30 c-4 -17 -24 -52 -43
-79 -30 -42 -37 -47 -45 -32 -7 13 -13 14 -23 6 -16 -13 -8 -43 9 -33 6 4 4
-1 -4 -12 -14 -17 -15 -17 -18 -1 -3 11 -9 15 -19 11 -9 -3 3 15 26 40 126
137 122 304 -12 453 -23 26 -29 36 -14 23 21 -19 27 -21 27 -9 0 24 -104 99
-211 153 -220 112 -491 183 -839 219 -114 12 -670 22 -681 12z m1531 -1035 c0
-24 -279 -127 -450 -165 -192 -44 -509 -80 -484 -56 10 9 83 21 129 20 53 0
267 38 386 69 130 34 241 73 338 120 60 28 81 31 81 12z m-1830 -463 c0 -52
37 -1058 42 -1130 1 -20 0 -40 -4 -43 -8 -8 -16 119 -38 635 -11 256 -21 493
-23 528 -2 46 0 62 10 62 9 0 13 -16 13 -52z m1187 -80 c-17 -341 -58 -1037
-63 -1067 -3 -18 -7 -31 -9 -29 -5 4 39 956 51 1123 3 50 8 93 11 98 13 22 15
-6 10 -125z m-902 92 c131 -14 551 -11 685 4 63 7 117 11 119 9 6 -4 -49
-1145 -55 -1155 -3 -4 -18 -2 -35 4 -25 8 -33 7 -49 -7 -11 -10 -20 -13 -20
-7 0 6 -7 9 -15 6 -8 -4 -13 -10 -10 -14 3 -4 -2 -11 -11 -14 -12 -4 -15 -2
-10 9 3 8 1 15 -4 15 -6 0 -10 -5 -10 -11 0 -6 -9 -8 -21 -4 -14 5 -19 3 -15
-3 3 -6 1 -14 -5 -18 -8 -5 -7 -9 2 -15 17 -10 -34 -31 -56 -23 -11 5 -13 2
-9 -10 3 -9 11 -16 18 -16 6 0 -3 -9 -21 -19 -17 -11 -36 -28 -42 -38 -9 -15
-10 -13 -7 13 2 19 -4 39 -16 53 -10 13 -18 18 -18 11 0 -7 7 -18 16 -25 15
-10 13 -15 -17 -43 -35 -32 -56 -42 -43 -19 4 6 -2 4 -13 -6 -11 -9 -25 -17
-31 -17 -7 0 -11 -3 -11 -7 3 -20 -2 -33 -12 -33 -8 0 -8 4 -1 13 7 8 7 18 2
27 -6 8 -10 10 -10 5 0 -6 -9 -11 -21 -11 -16 0 -19 5 -15 23 4 12 2 24 -3 27
-5 3 -8 -2 -7 -12 0 -11 -5 -16 -14 -13 -8 2 -22 4 -32 5 -10 0 -15 7 -12 19
2 15 -1 17 -19 11 -20 -6 -21 -5 -7 11 13 17 13 18 -2 13 -25 -10 -30 3 -8 22
19 17 19 17 -5 28 -14 6 -27 7 -30 2 -3 -4 2 -10 12 -12 13 -2 10 -6 -11 -16
-24 -11 -28 -10 -23 1 6 17 -36 43 -53 32 -7 -4 -10 -1 -8 10 2 10 -3 20 -11
23 -9 3 -11 0 -6 -8 5 -9 4 -11 -4 -6 -6 4 -9 11 -6 16 3 5 1 11 -5 15 -5 3
-10 0 -10 -7 0 -7 -6 -4 -12 7 -6 11 -12 21 -14 23 -1 2 -12 -2 -24 -8 -13 -7
-20 -8 -16 -2 3 6 2 13 -4 17 -5 3 -10 0 -10 -7 0 -9 -3 -9 -10 2 -8 12 -13
13 -29 3 -18 -12 -20 -8 -25 60 -4 40 -13 261 -21 492 -8 231 -17 460 -20 509
l-5 89 63 -7 c34 -4 103 -11 152 -16z m824 -1461 c-11 -224 -25 -375 -28 -291
-1 33 -8 51 -31 75 -16 18 -30 27 -30 22 0 -15 -48 -11 -63 5 -10 12 -9 12 6
1 11 -9 17 -10 17 -3 0 6 6 9 14 6 8 -3 16 3 19 16 4 16 2 20 -11 16 -19 -6
-59 20 -48 31 4 4 17 1 29 -6 12 -7 6 1 -13 19 -19 18 -36 28 -38 21 -2 -6
-11 -11 -20 -11 -14 0 -14 2 -3 9 10 7 11 13 2 27 -9 16 -10 16 -11 3 0 -19
-26 -33 -35 -20 -6 11 18 31 42 36 10 2 18 4 18 5 0 1 8 3 18 5 9 2 15 -1 11
-6 -3 -5 -12 -9 -20 -9 -8 0 -12 -5 -8 -11 3 -6 15 -9 25 -6 10 3 22 0 26 -5
4 -7 1 -8 -8 -3 -8 5 -6 -1 5 -13 10 -12 23 -19 29 -15 6 4 3 10 -9 15 -17 7
-17 7 3 5 12 -1 22 2 22 8 1 5 -7 10 -17 10 -10 0 -17 8 -17 20 0 11 -4 23
-10 27 -6 5 -5 8 4 8 7 0 11 6 8 14 -4 10 2 13 19 12 25 -1 25 -1 4 -18 -11
-9 -16 -19 -11 -22 5 -4 13 -1 17 5 4 8 9 7 16 -2 8 -11 9 -10 4 3 -4 13 2 20
19 24 14 3 22 10 20 15 -3 4 -11 7 -18 5 -7 -1 -9 -1 -4 1 13 8 7 23 -9 23 -8
0 -12 5 -9 10 5 8 11 8 20 0 9 -8 15 -8 20 0 3 6 11 8 16 5 12 -8 11 6 -1 25
-8 13 -10 12 -10 -2 0 -10 -5 -18 -10 -18 -13 0 5 37 20 42 6 2 13 27 17 56
12 103 13 42 2 -169z m-1041 133 c13 -23 39 -25 34 -3 -1 7 2 10 8 6 6 -4 8
-15 5 -26 -4 -10 -2 -19 4 -19 5 0 17 -3 25 -6 12 -5 15 -2 10 12 -3 11 3 6
12 -11 18 -30 20 -35 23 -55 0 -5 6 -10 12 -10 8 0 7 5 -1 15 -11 13 -10 14 4
9 9 -3 16 -12 16 -20 0 -10 7 -13 23 -9 16 4 28 0 38 -12 13 -17 13 -17 -4 -3
-17 12 -20 12 -29 -3 -7 -13 -14 -15 -27 -8 -13 7 -18 6 -18 -4 0 -7 6 -11 14
-8 7 3 13 -2 13 -11 0 -9 -4 -16 -9 -16 -5 0 -12 -7 -15 -15 -5 -13 -1 -12 18
2 13 10 21 24 18 32 -4 10 -1 12 9 5 8 -4 20 -9 28 -11 29 -4 37 -24 17 -39
-11 -8 -16 -14 -11 -14 5 0 0 -7 -11 -15 -10 -8 -23 -14 -29 -14 -5 0 -1 6 9
14 11 8 16 15 11 15 -5 0 0 6 11 14 15 12 17 17 7 27 -11 11 -13 10 -13 -4 0
-9 -6 -16 -12 -14 -7 1 -12 -6 -10 -15 3 -20 -14 -24 -21 -5 -5 10 -11 -26 -8
-45 0 -4 -6 -5 -14 -2 -8 4 -12 11 -8 17 3 6 1 7 -5 3 -18 -11 -14 -30 9 -44
12 -7 18 -16 15 -19 -3 -4 -14 1 -25 11 -17 16 -20 16 -35 1 -9 -9 -16 -12
-16 -6 0 5 5 13 10 16 6 3 10 11 10 17 0 7 -4 7 -13 -1 -8 -6 -16 -9 -18 -6
-3 2 -3 -10 -1 -28 2 -22 -2 -38 -12 -46 -14 -11 -16 -11 -16 3 0 9 5 16 12
16 6 0 9 2 6 5 -12 12 -36 -8 -33 -27 3 -15 0 -18 -12 -14 -12 5 -14 1 -10
-14 3 -11 2 -22 -3 -25 -4 -3 -11 84 -14 193 -3 108 -8 220 -10 247 -4 47 -4
48 7 20 7 -16 18 -40 25 -53z"/>
</g>
</svg>
